<svg xmlns="http://www.w3.org/2000/svg" width="80" height="80" viewBox="0 0 80 80" fill="none"><path d="M42.917 34C36.8372 34 31.5015 37.2497 28.4425 42.1438C25.8752 41.4468 23.1932 41.3214 20.5752 41.7762C17.9572 42.231 15.4634 43.2555 13.2599 44.7813C11.0565 46.3071 9.19405 48.2992 7.79673 50.6249C6.39941 52.9506 5.49932 55.5564 5.15644 58.2686C4.81357 60.9808 5.0358 63.7372 5.8083 66.354C6.58081 68.9708 7.88586 71.3879 9.63647 73.4443C11.3871 75.5006 13.543 77.1489 15.9606 78.2793C18.3782 79.4097 21.0019 79.9962 23.6569 79.9998H60.6954C62.5962 80.0088 64.4796 79.6256 66.2344 78.8729C67.9892 78.1201 69.5799 77.013 70.9128 75.6168C72.2457 74.2206 73.2937 72.5637 73.9952 70.7436C74.6966 68.9235 75.0371 66.9772 74.9968 65.0193C74.9565 63.0615 74.536 61.1318 73.7603 59.344C72.9845 57.5562 71.8692 55.9466 70.48 54.6099C69.0908 53.2732 67.4559 52.2367 65.6717 51.5613C63.8874 50.8859 61.99 50.5854 60.0912 50.6775C59.8318 46.1663 57.9093 41.9276 54.717 38.8282C51.5247 35.7288 47.3036 33.9996 42.917 34Z" fill="#F26822"></path></svg>