<svg width="151" height="23" viewBox="0 0 151 23" fill="none" xmlns="http://www.w3.org/2000/svg">
<path d="M56.1518 1.94627H46.9657L47.5365 0.363281H56.1518V1.94627Z" fill="white"/>
<path d="M31.6713 0.363281H40.1982L40.7573 1.95216H31.6772V0.363281H31.6713Z" fill="white"/>
<path d="M24.9038 0.363281C26.3103 0.49863 27.5284 0.998832 28.57 1.94627H13.1167V0.363281H24.9038Z" fill="white"/>
<path d="M11.722 0.363281H0.988291V1.94627H11.722V0.363281Z" fill="white"/>
<path d="M56.1518 4.91806H45.9182C45.9182 4.91806 46.4773 3.34096 46.4714 3.34096H56.1518V4.91806Z" fill="white"/>
<path d="M41.8107 4.91806H31.6713V3.34096H41.2575L41.8107 4.91806Z" fill="white"/>
<path d="M29.7705 3.34096C29.9765 3.85881 30.2178 4.30605 30.2178 4.91806H13.1167V3.34096H29.7705Z" fill="white"/>
<path d="M11.722 3.34096H0.988291V4.91806H11.722V3.34096Z" fill="white"/>
<path d="M44.8707 7.89574L45.4298 6.31274H53.1152V7.88985L44.8707 7.89574Z" fill="white"/>
<path d="M42.305 6.31274L42.864 7.89574H34.696V6.31274H42.305Z" fill="white"/>
<path d="M30.3531 6.31274C30.3531 6.85414 30.2825 7.41907 30.1295 7.89574H25.4452V6.31274H30.3531Z" fill="white"/>
<path d="M8.59725 6.31863H3.98362V7.89574H8.59725V6.31863Z" fill="white"/>
<path d="M20.8316 6.31274H16.2239V7.89574H20.8316V6.31274Z" fill="white"/>
<path d="M39.2332 9.60231V10.8028H34.696V9.22569H43.3407L43.8762 10.6969L44.3941 9.22569H53.1094V10.8028H48.5958V9.60231L48.1779 10.8028H39.651L39.2332 9.60231Z" fill="white"/>
<path d="M16.2239 9.23157H29.4468C29.1585 9.7612 28.6348 10.4026 28.1346 10.8087H16.2239C16.2239 10.8087 16.2239 9.23746 16.2239 9.23157Z" fill="white"/>
<path d="M8.59725 9.23157H3.98362V10.8087H8.59725V9.23157Z" fill="white"/>
<path d="M53.1094 12.2034H48.5958V13.7805H53.1094V12.2034Z" fill="white"/>
<path d="M39.2332 12.2034H34.696V13.7805H39.2332V12.2034Z" fill="white"/>
<path d="M47.6836 12.2034C47.6836 12.2034 47.154 13.7805 47.1363 13.7805H40.7043L40.1394 12.2034H47.6895H47.6836Z" fill="white"/>
<path d="M16.2239 12.1975H28.111C28.6524 12.6506 29.1467 13.2097 29.5292 13.7746C29.5528 13.7746 16.2239 13.7746 16.2239 13.7746V12.1975Z" fill="white"/>
<path d="M8.59725 13.7746V12.1975H3.9895V13.7746H8.59725Z" fill="white"/>
<path d="M53.1094 15.1693H48.5958V16.7464H53.1094V15.1693Z" fill="white"/>
<path d="M39.2332 15.1693H34.696V16.7464H39.2332V15.1693Z" fill="white"/>
<path d="M46.0771 16.7523C46.0771 16.7523 46.6361 15.1693 46.642 15.1693H41.1751L41.7342 16.7464C41.7342 16.7464 46.0771 16.7581 46.0771 16.7523Z" fill="white"/>
<path d="M16.2239 16.7464V15.1693H20.8963V16.7464H16.2239Z" fill="white"/>
<path d="M30.1883 15.1693C30.4119 15.6459 30.4355 16.2109 30.4826 16.7523H25.5276V15.1693H30.1883Z" fill="white"/>
<path d="M8.59725 15.1693H3.9895V16.7464H8.59725V15.1693Z" fill="white"/>
<path d="M56.1459 18.0822H48.5958V19.6593H56.1459V18.0822Z" fill="white"/>
<path d="M39.2332 18.0822H31.6713V19.6593H39.2332V18.0822Z" fill="white"/>
<path d="M45.0649 19.6593H42.7581L42.2049 18.0822H45.5946L45.0649 19.6593Z" fill="white"/>
<path d="M0.988291 18.0822V19.6593H11.7162V18.0822C11.7162 18.0822 0.976521 18.0822 0.988291 18.0822Z" fill="white"/>
<path d="M30.2825 18.0822C30.1707 18.6001 30.0647 19.2356 29.6881 19.6593H13.1167V18.0822H30.2825Z" fill="white"/>
<path d="M44.0174 22.6311H43.8056L43.2642 21.054H44.5706L44.0174 22.6311Z" fill="white"/>
<path d="M56.1459 21.054H48.5958V22.637H56.1459V21.054Z" fill="white"/>
<path d="M13.1167 22.6311V21.054C13.1167 21.054 28.6171 21.054 28.6583 21.054C27.6167 22.0485 26.1926 22.6135 24.6508 22.6311H13.1167Z" fill="white"/>
<path d="M39.2332 21.054H31.6713V22.637H39.2332V21.054Z" fill="white"/>
<path d="M11.7162 22.6311C11.7162 22.6311 0.994176 22.637 0.988291 22.6311V21.054C0.988291 21.054 11.7103 21.0658 11.7162 21.054V22.6311Z" fill="white"/>
<path d="M76.934 8.652C76.2618 8.652 75.6745 8.49924 75.1721 8.19372C74.6697 7.8882 74.2793 7.46387 74.001 6.92072C73.7226 6.37078 73.5834 5.73258 73.5834 5.00612C73.5834 4.27287 73.726 3.62788 74.0111 3.07116C74.3031 2.50764 74.7138 2.06973 75.2434 1.75742C75.7798 1.43832 76.4146 1.27877 77.1478 1.27877C77.9829 1.27877 78.6754 1.47905 79.2254 1.87963C79.7753 2.2802 80.1317 2.83353 80.2947 3.53962H78.8384C78.7297 3.20694 78.5328 2.94895 78.2477 2.76564C77.9625 2.57553 77.5959 2.48048 77.1478 2.48048C76.4349 2.48048 75.885 2.70793 75.498 3.16281C75.111 3.61091 74.9175 4.22874 74.9175 5.0163C74.9175 5.80387 75.1076 6.41491 75.4878 6.84943C75.8748 7.27716 76.3976 7.49102 77.0562 7.49102C77.7011 7.49102 78.1866 7.31789 78.5125 6.97164C78.8452 6.61859 79.0454 6.15692 79.1133 5.58661H77.3108V4.60894H80.4271V8.52979H79.2254L79.1235 7.59286C78.8927 7.93233 78.6041 8.19372 78.2579 8.37703C77.9116 8.56035 77.4703 8.652 76.934 8.652Z" fill="white"/>
<path d="M84.0876 8.652C83.5988 8.652 83.1575 8.53998 82.7637 8.31593C82.3767 8.09188 82.0678 7.78297 81.8369 7.38918C81.6129 6.98861 81.5009 6.52694 81.5009 6.00416C81.5009 5.48138 81.6163 5.02309 81.8471 4.62931C82.0779 4.22874 82.3869 3.91643 82.7739 3.69238C83.1676 3.46833 83.6089 3.35631 84.0978 3.35631C84.5798 3.35631 85.0143 3.46833 85.4013 3.69238C85.7951 3.91643 86.104 4.22874 86.3281 4.62931C86.5589 5.02309 86.6743 5.48138 86.6743 6.00416C86.6743 6.52694 86.5589 6.98861 86.3281 7.38918C86.104 7.78297 85.7951 8.09188 85.4013 8.31593C85.0076 8.53998 84.5696 8.652 84.0876 8.652ZM84.0876 7.52158C84.4271 7.52158 84.7224 7.39597 84.9736 7.14477C85.2248 6.88677 85.3504 6.50657 85.3504 6.00416C85.3504 5.50174 85.2248 5.12493 84.9736 4.87373C84.7224 4.61573 84.4305 4.48674 84.0978 4.48674C83.7515 4.48674 83.4528 4.61573 83.2016 4.87373C82.9572 5.12493 82.835 5.50174 82.835 6.00416C82.835 6.50657 82.9572 6.88677 83.2016 7.14477C83.4528 7.39597 83.7481 7.52158 84.0876 7.52158Z" fill="white"/>
<path d="M87.8399 8.52979V1.1973H89.1434V8.52979H87.8399Z" fill="white"/>
<path d="M92.7973 8.652C92.3221 8.652 91.8977 8.53658 91.5243 8.30575C91.1509 8.07491 90.8556 7.7592 90.6383 7.35863C90.4211 6.95806 90.3124 6.50317 90.3124 5.99397C90.3124 5.48477 90.4211 5.03328 90.6383 4.6395C90.8556 4.23892 91.1509 3.92661 91.5243 3.70257C91.8977 3.47173 92.3221 3.35631 92.7973 3.35631C93.1775 3.35631 93.5102 3.4276 93.7954 3.57017C94.0805 3.71275 94.3113 3.91304 94.4879 4.17103V1.1973H95.7914V8.52979H94.6304L94.4879 7.80673C94.3249 8.03078 94.1077 8.22767 93.8361 8.3974C93.5713 8.56713 93.2251 8.652 92.7973 8.652ZM93.0723 7.51139C93.4932 7.51139 93.8361 7.37221 94.1009 7.09385C94.3725 6.80869 94.5082 6.44546 94.5082 6.00416C94.5082 5.56285 94.3725 5.20301 94.1009 4.92465C93.8361 4.6395 93.4932 4.49692 93.0723 4.49692C92.6581 4.49692 92.3153 4.6361 92.0437 4.91446C91.7721 5.19283 91.6363 5.55266 91.6363 5.99397C91.6363 6.43528 91.7721 6.79851 92.0437 7.08366C92.3153 7.36881 92.6581 7.51139 93.0723 7.51139Z" fill="white"/>
<path d="M73.8787 21.6842V14.5553H76.384C76.8864 14.5553 77.3006 14.6368 77.6265 14.7998C77.9591 14.9559 78.207 15.1732 78.3699 15.4515C78.5329 15.7231 78.6143 16.0286 78.6143 16.3681C78.6143 16.8298 78.4887 17.193 78.2375 17.4578C77.9931 17.7226 77.6978 17.9059 77.3515 18.0077C77.6163 18.0553 77.8573 18.1605 78.0746 18.3234C78.2918 18.4864 78.4616 18.6901 78.5838 18.9345C78.7128 19.1789 78.7773 19.4471 78.7773 19.739C78.7773 20.0988 78.689 20.4281 78.5125 20.7269C78.336 21.0188 78.0746 21.253 77.7283 21.4296C77.382 21.5993 76.9611 21.6842 76.4655 21.6842H73.8787ZM74.7342 17.6717H76.3229C76.7778 17.6717 77.1274 17.5664 77.3719 17.3559C77.6163 17.1387 77.7385 16.84 77.7385 16.4598C77.7385 16.0999 77.6163 15.8114 77.3719 15.5941C77.1342 15.3769 76.7744 15.2682 76.2924 15.2682H74.7342V17.6717ZM74.7342 20.9713H76.3738C76.8627 20.9713 77.2395 20.8593 77.5043 20.6352C77.769 20.4044 77.9014 20.0853 77.9014 19.6779C77.9014 19.2773 77.7623 18.9582 77.4839 18.7206C77.2055 18.4762 76.8287 18.354 76.3535 18.354H74.7342V20.9713Z" fill="white"/>
<path d="M81.7975 21.8064C81.2 21.8064 80.7247 21.6264 80.3717 21.2666C80.0187 20.9 79.8421 20.3399 79.8421 19.5862V16.6329H80.6976V19.4946C80.6976 20.5469 81.1287 21.0731 81.991 21.0731C82.4323 21.0731 82.7955 20.917 83.0807 20.6047C83.3726 20.2856 83.5186 19.8341 83.5186 19.2502V16.6329H84.374V21.6842H83.6L83.5389 20.7778C83.3828 21.0969 83.1485 21.3481 82.8362 21.5314C82.5307 21.7147 82.1845 21.8064 81.7975 21.8064Z" fill="white"/>
<path d="M87.7171 21.8064C87.1128 21.8064 86.6104 21.6536 86.2098 21.3481C85.8093 21.0426 85.5751 20.6284 85.5072 20.1056H86.383C86.4373 20.3704 86.5765 20.6013 86.8005 20.7981C87.0314 20.9883 87.3403 21.0833 87.7273 21.0833C88.0871 21.0833 88.3519 21.0086 88.5216 20.8593C88.6914 20.7031 88.7762 20.5198 88.7762 20.3093C88.7762 20.0038 88.6642 19.8001 88.4402 19.6983C88.2229 19.5964 87.914 19.5048 87.5134 19.4233C87.2418 19.369 86.9703 19.2909 86.6987 19.1891C86.4271 19.0872 86.1997 18.9447 86.0164 18.7613C85.833 18.5712 85.7414 18.3234 85.7414 18.0179C85.7414 17.5766 85.9043 17.2168 86.2302 16.9384C86.5629 16.6532 87.011 16.5107 87.5745 16.5107C88.1109 16.5107 88.5488 16.6465 88.8883 16.918C89.2345 17.1828 89.4348 17.563 89.4891 18.0586H88.6438C88.6099 17.8006 88.4979 17.6004 88.3078 17.4578C88.1244 17.3084 87.8766 17.2337 87.5643 17.2337C87.2588 17.2337 87.0212 17.2982 86.8514 17.4272C86.6885 17.5562 86.607 17.726 86.607 17.9364C86.607 18.1401 86.7123 18.2997 86.9227 18.4151C87.14 18.5305 87.4319 18.629 87.7986 18.7104C88.1109 18.7783 88.4062 18.8632 88.6846 18.965C88.9697 19.0601 89.2006 19.206 89.3771 19.4029C89.5604 19.593 89.652 19.8714 89.652 20.238C89.6588 20.6929 89.4857 21.0697 89.1327 21.3685C88.7864 21.6604 88.3145 21.8064 87.7171 21.8064Z" fill="white"/>
<path d="M91.3935 15.5126C91.2238 15.5126 91.0812 15.4583 90.9658 15.3497C90.8572 15.2343 90.8028 15.0917 90.8028 14.922C90.8028 14.759 90.8572 14.6232 90.9658 14.5146C91.0812 14.406 91.2238 14.3517 91.3935 14.3517C91.5565 14.3517 91.6956 14.406 91.8111 14.5146C91.9265 14.6232 91.9842 14.759 91.9842 14.922C91.9842 15.0917 91.9265 15.2343 91.8111 15.3497C91.6956 15.4583 91.5565 15.5126 91.3935 15.5126ZM90.9658 21.6842V16.6329H91.8212V21.6842H90.9658Z" fill="white"/>
<path d="M93.3107 21.6842V16.6329H94.0847L94.1356 17.5393C94.2986 17.2202 94.5328 16.969 94.8383 16.7856C95.1439 16.6023 95.4901 16.5107 95.8771 16.5107C96.4746 16.5107 96.9498 16.694 97.3029 17.0606C97.6627 17.4204 97.8426 17.9772 97.8426 18.7308V21.6842H96.9872V18.8224C96.9872 17.7701 96.5527 17.2439 95.6836 17.2439C95.2491 17.2439 94.8859 17.4035 94.5939 17.7226C94.3088 18.0349 94.1662 18.483 94.1662 19.0669V21.6842H93.3107Z" fill="white"/>
<path d="M101.41 21.8064C100.928 21.8064 100.5 21.6977 100.127 21.4805C99.7531 21.2564 99.4578 20.9475 99.2405 20.5537C99.0301 20.16 98.9248 19.6949 98.9248 19.1585C98.9248 18.629 99.0301 18.1673 99.2405 17.7735C99.451 17.3729 99.743 17.064 100.116 16.8467C100.497 16.6227 100.934 16.5107 101.43 16.5107C101.919 16.5107 102.34 16.6227 102.693 16.8467C103.053 17.064 103.328 17.3526 103.518 17.7124C103.708 18.0722 103.803 18.4592 103.803 18.8734C103.803 18.9481 103.8 19.0227 103.793 19.0974C103.793 19.1721 103.793 19.257 103.793 19.352H99.7701C99.7905 19.739 99.8787 20.0615 100.035 20.3195C100.198 20.5707 100.398 20.7608 100.636 20.8898C100.88 21.0188 101.138 21.0833 101.41 21.0833C101.763 21.0833 102.058 21.0018 102.296 20.8389C102.533 20.6759 102.707 20.4553 102.815 20.1769H103.66C103.525 20.6454 103.263 21.0358 102.876 21.3481C102.496 21.6536 102.007 21.8064 101.41 21.8064ZM101.41 17.2337C101.002 17.2337 100.639 17.3593 100.32 17.6105C100.008 17.855 99.8278 18.2148 99.7803 18.6901H102.958C102.937 18.2352 102.781 17.8787 102.489 17.6207C102.197 17.3627 101.837 17.2337 101.41 17.2337Z" fill="white"/>
<path d="M106.872 21.8064C106.268 21.8064 105.765 21.6536 105.365 21.3481C104.964 21.0426 104.73 20.6284 104.662 20.1056H105.538C105.592 20.3704 105.731 20.6013 105.955 20.7981C106.186 20.9883 106.495 21.0833 106.882 21.0833C107.242 21.0833 107.507 21.0086 107.676 20.8593C107.846 20.7031 107.931 20.5198 107.931 20.3093C107.931 20.0038 107.819 19.8001 107.595 19.6983C107.378 19.5964 107.069 19.5048 106.668 19.4233C106.397 19.369 106.125 19.2909 105.853 19.1891C105.582 19.0872 105.354 18.9447 105.171 18.7613C104.988 18.5712 104.896 18.3234 104.896 18.0179C104.896 17.5766 105.059 17.2168 105.385 16.9384C105.718 16.6532 106.166 16.5107 106.729 16.5107C107.266 16.5107 107.703 16.6465 108.043 16.918C108.389 17.1828 108.59 17.563 108.644 18.0586H107.799C107.765 17.8006 107.653 17.6004 107.462 17.4578C107.279 17.3084 107.031 17.2337 106.719 17.2337C106.414 17.2337 106.176 17.2982 106.006 17.4272C105.843 17.5562 105.762 17.726 105.762 17.9364C105.762 18.1401 105.867 18.2997 106.077 18.4151C106.295 18.5305 106.587 18.629 106.953 18.7104C107.266 18.7783 107.561 18.8632 107.839 18.965C108.124 19.0601 108.355 19.206 108.532 19.4029C108.715 19.593 108.807 19.8714 108.807 20.238C108.814 20.6929 108.64 21.0697 108.287 21.3685C107.941 21.6604 107.469 21.8064 106.872 21.8064Z" fill="white"/>
<path d="M111.964 21.8064C111.36 21.8064 110.857 21.6536 110.457 21.3481C110.056 21.0426 109.822 20.6284 109.754 20.1056H110.63C110.684 20.3704 110.823 20.6013 111.047 20.7981C111.278 20.9883 111.587 21.0833 111.974 21.0833C112.334 21.0833 112.599 21.0086 112.768 20.8593C112.938 20.7031 113.023 20.5198 113.023 20.3093C113.023 20.0038 112.911 19.8001 112.687 19.6983C112.47 19.5964 112.161 19.5048 111.76 19.4233C111.489 19.369 111.217 19.2909 110.945 19.1891C110.674 19.0872 110.446 18.9447 110.263 18.7613C110.08 18.5712 109.988 18.3234 109.988 18.0179C109.988 17.5766 110.151 17.2168 110.477 16.9384C110.81 16.6532 111.258 16.5107 111.821 16.5107C112.358 16.5107 112.796 16.6465 113.135 16.918C113.481 17.1828 113.682 17.563 113.736 18.0586H112.891C112.857 17.8006 112.745 17.6004 112.554 17.4578C112.371 17.3084 112.123 17.2337 111.811 17.2337C111.506 17.2337 111.268 17.2982 111.098 17.4272C110.935 17.5562 110.854 17.726 110.854 17.9364C110.854 18.1401 110.959 18.2997 111.169 18.4151C111.387 18.5305 111.679 18.629 112.045 18.7104C112.358 18.7783 112.653 18.8632 112.931 18.965C113.216 19.0601 113.447 19.206 113.624 19.4029C113.807 19.593 113.899 19.8714 113.899 20.238C113.906 20.6929 113.732 21.0697 113.379 21.3685C113.033 21.6604 112.561 21.8064 111.964 21.8064Z" fill="white"/>
<path d="M117.867 21.6842V14.5553H120.209C120.766 14.5553 121.224 14.647 121.584 14.8303C121.944 15.0136 122.209 15.2614 122.378 15.5737C122.555 15.8861 122.643 16.2391 122.643 16.6329C122.643 17.0199 122.558 17.3695 122.389 17.6818C122.219 17.9941 121.954 18.2454 121.594 18.4355C121.234 18.6188 120.773 18.7104 120.209 18.7104H118.722V21.6842H117.867ZM118.722 17.9874H120.189C120.759 17.9874 121.163 17.8685 121.401 17.6309C121.645 17.3865 121.767 17.0538 121.767 16.6329C121.767 16.2052 121.645 15.8725 121.401 15.6348C121.163 15.3904 120.759 15.2682 120.189 15.2682H118.722V17.9874Z" fill="white"/>
<path d="M125.155 21.8064C124.734 21.8064 124.385 21.7351 124.106 21.5925C123.828 21.4499 123.621 21.2598 123.485 21.0222C123.349 20.7846 123.281 20.5266 123.281 20.2482C123.281 19.7322 123.478 19.335 123.872 19.0567C124.266 18.7783 124.802 18.6391 125.481 18.6391H126.846V18.578C126.846 18.1367 126.73 17.804 126.5 17.58C126.269 17.3492 125.96 17.2337 125.573 17.2337C125.24 17.2337 124.952 17.3186 124.707 17.4883C124.47 17.6513 124.32 17.8923 124.259 18.2114H123.383C123.417 17.8448 123.539 17.5359 123.75 17.2847C123.967 17.0335 124.235 16.8434 124.554 16.7144C124.874 16.5786 125.213 16.5107 125.573 16.5107C126.279 16.5107 126.809 16.7008 127.162 17.081C127.521 17.4544 127.701 17.9534 127.701 18.578V21.6842H126.938L126.887 20.7778C126.744 21.0629 126.534 21.3074 126.255 21.511C125.984 21.7079 125.617 21.8064 125.155 21.8064ZM125.288 21.0833C125.614 21.0833 125.892 20.9984 126.123 20.8287C126.36 20.659 126.54 20.4383 126.663 20.1667C126.785 19.8952 126.846 19.61 126.846 19.3113V19.3011H125.552C125.05 19.3011 124.694 19.3894 124.483 19.5659C124.279 19.7356 124.178 19.9495 124.178 20.2075C124.178 20.4723 124.273 20.6861 124.463 20.8491C124.66 21.0052 124.935 21.0833 125.288 21.0833Z" fill="white"/>
<path d="M128.985 21.6842V16.6329H129.759L129.83 17.6004C129.986 17.2677 130.224 17.0029 130.543 16.806C130.862 16.6091 131.256 16.5107 131.724 16.5107V17.4069H131.49C131.191 17.4069 130.916 17.4612 130.665 17.5698C130.414 17.6717 130.214 17.8482 130.064 18.0994C129.915 18.3506 129.84 18.6968 129.84 19.1382V21.6842H128.985Z" fill="white"/>
<path d="M134.68 21.6842C134.219 21.6842 133.855 21.5721 133.591 21.3481C133.326 21.124 133.194 20.7201 133.194 20.1362V17.3559H132.318V16.6329H133.194L133.306 15.421H134.049V16.6329H135.536V17.3559H134.049V20.1362C134.049 20.4553 134.113 20.6725 134.242 20.788C134.371 20.8966 134.599 20.9509 134.925 20.9509H135.454V21.6842H134.68Z" fill="white"/>
<path d="M136.623 21.6842V16.6329H137.397L137.448 17.5393C137.611 17.2202 137.845 16.969 138.15 16.7856C138.456 16.6023 138.802 16.5107 139.189 16.5107C139.787 16.5107 140.262 16.694 140.615 17.0606C140.975 17.4204 141.155 17.9772 141.155 18.7308V21.6842H140.299V18.8224C140.299 17.7701 139.865 17.2439 138.996 17.2439C138.561 17.2439 138.198 17.4035 137.906 17.7226C137.621 18.0349 137.478 18.483 137.478 19.0669V21.6842H136.623Z" fill="white"/>
<path d="M144.722 21.8064C144.24 21.8064 143.812 21.6977 143.438 21.4805C143.065 21.2564 142.77 20.9475 142.552 20.5537C142.342 20.16 142.237 19.6949 142.237 19.1585C142.237 18.629 142.342 18.1673 142.552 17.7735C142.763 17.3729 143.055 17.064 143.428 16.8467C143.809 16.6227 144.246 16.5107 144.742 16.5107C145.231 16.5107 145.652 16.6227 146.005 16.8467C146.365 17.064 146.64 17.3526 146.83 17.7124C147.02 18.0722 147.115 18.4592 147.115 18.8734C147.115 18.9481 147.112 19.0227 147.105 19.0974C147.105 19.1721 147.105 19.257 147.105 19.352H143.082C143.102 19.739 143.191 20.0615 143.347 20.3195C143.51 20.5707 143.71 20.7608 143.948 20.8898C144.192 21.0188 144.45 21.0833 144.722 21.0833C145.075 21.0833 145.37 21.0018 145.608 20.8389C145.845 20.6759 146.018 20.4553 146.127 20.1769H146.972C146.837 20.6454 146.575 21.0358 146.188 21.3481C145.808 21.6536 145.319 21.8064 144.722 21.8064ZM144.722 17.2337C144.314 17.2337 143.951 17.3593 143.632 17.6105C143.32 17.855 143.14 18.2148 143.092 18.6901H146.27C146.249 18.2352 146.093 17.8787 145.801 17.6207C145.509 17.3627 145.149 17.2337 144.722 17.2337Z" fill="white"/>
<path d="M148.249 21.6842V16.6329H149.023L149.094 17.6004C149.25 17.2677 149.488 17.0029 149.807 16.806C150.126 16.6091 150.52 16.5107 150.988 16.5107V17.4069H150.754C150.455 17.4069 150.18 17.4612 149.929 17.5698C149.678 17.6717 149.478 17.8482 149.328 18.0994C149.179 18.3506 149.104 18.6968 149.104 19.1382V21.6842H148.249Z" fill="white"/>
</svg>
