<svg width="23" height="22" viewBox="0 0 23 22" fill="none" xmlns="http://www.w3.org/2000/svg">
<path d="M20.5559 16.412C21.5854 14.7347 22.1291 12.8045 22.1263 10.8364V10.8361C22.1291 8.86798 21.5854 6.93777 20.5558 5.26045L20.55 5.2513C19.5948 3.69451 18.2564 2.40868 16.6626 1.51666C15.0688 0.624647 13.2728 0.156257 11.4464 0.15625C9.61994 0.156243 7.82401 0.624617 6.23019 1.51662C4.63637 2.40862 3.29794 3.69444 2.34276 5.25122L2.33683 5.2605C1.30984 6.93897 0.766365 8.86848 0.766357 10.8362C0.76635 12.804 1.30981 14.7335 2.33679 16.4119L2.34282 16.4213C3.298 17.9781 4.63643 19.2639 6.23024 20.1559C7.82404 21.0479 9.61996 21.5162 11.4464 21.5162C13.2728 21.5162 15.0687 21.0478 16.6625 20.1558C18.2563 19.2638 19.5948 17.978 20.5499 16.4213L20.5559 16.412ZM12.8115 19.6858C12.608 19.8822 12.3737 20.044 12.118 20.1648C11.9082 20.2645 11.6787 20.3162 11.4464 20.3162C11.214 20.3162 10.9845 20.2645 10.7747 20.1648C10.2881 19.9162 9.87151 19.5497 9.56311 19.0986C8.93327 18.1885 8.4665 17.1757 8.18368 16.1057C9.27014 16.0388 10.3577 16.0047 11.4464 16.0035C12.5346 16.0035 13.6222 16.0376 14.7092 16.1057C14.5527 16.6559 14.3571 17.1942 14.1241 17.7166C13.8172 18.4513 13.3716 19.1199 12.8115 19.6858ZM1.98724 11.4362H6.295C6.32305 12.6383 6.45334 13.8357 6.68445 15.0157C5.50688 15.1193 4.33232 15.2616 3.16076 15.4426C2.47472 14.2118 2.07369 12.8427 1.98724 11.4362ZM3.16075 6.22987C4.33185 6.41135 5.50683 6.5537 6.68569 6.65693C6.45411 7.83678 6.32354 9.03422 6.29538 10.2362H1.98724C2.07368 8.8298 2.47471 7.46069 3.16075 6.22987ZM10.0812 1.98665C10.2847 1.79027 10.5189 1.62849 10.7747 1.5077C10.9845 1.40797 11.214 1.35624 11.4464 1.35624C11.6787 1.35624 11.9082 1.40797 12.118 1.5077C12.6046 1.75625 13.0212 2.12281 13.3296 2.57386C13.9594 3.48399 14.4262 4.49673 14.709 5.56681C13.6225 5.63367 12.535 5.66772 11.4464 5.66898C10.3582 5.66897 9.27053 5.63491 8.18349 5.5668C8.34004 5.01661 8.53558 4.47828 8.76862 3.95588C9.07548 3.22119 9.52115 2.55257 10.0812 1.98665ZM20.9055 10.2362H16.5977C16.5697 9.03422 16.4394 7.83676 16.2083 6.65683C17.3858 6.55321 18.5604 6.41089 19.732 6.22987C20.418 7.46069 20.819 8.8298 20.9055 10.2362ZM7.89137 14.9224C7.6567 13.7743 7.52416 12.6077 7.49531 11.4362H15.3975C15.3689 12.6077 15.2366 13.7743 15.0022 14.9224C13.8182 14.8447 12.6329 14.8051 11.4464 14.8035C10.2606 14.8035 9.07565 14.8431 7.89137 14.9224ZM15.0013 6.75012C15.236 7.89819 15.3685 9.06479 15.3974 10.2362H7.49518C7.52376 9.06479 7.65606 7.89817 7.89052 6.75007C9.07449 6.82775 10.2598 6.86738 11.4464 6.86897C12.6321 6.86897 13.8171 6.82935 15.0013 6.75012ZM16.5973 11.4362H20.9055C20.819 12.8427 20.418 14.2118 19.7319 15.4426C18.5609 15.2611 17.3859 15.1188 16.207 15.0156C16.4386 13.8357 16.5692 12.6383 16.5973 11.4362ZM19.0125 5.12539C17.9885 5.27312 16.9616 5.39008 15.9315 5.47627C15.7464 4.78702 15.5076 4.1133 15.2174 3.46128C14.9524 2.86127 14.619 2.29389 14.2238 1.77041C16.1337 2.35614 17.8097 3.53036 19.0125 5.12539ZM4.74295 4.13285C5.83853 3.03623 7.18639 2.22509 8.66837 1.77055C8.64588 1.79967 8.62276 1.8275 8.60059 1.85723C7.83886 2.95378 7.284 4.18036 6.9634 5.47646C5.93329 5.38921 4.90558 5.27219 3.88025 5.12539C4.14469 4.77513 4.43294 4.4435 4.74295 4.13285ZM3.88025 16.5471C4.90416 16.3993 5.93114 16.2824 6.9612 16.1962C7.14632 16.8855 7.38509 17.5592 7.67531 18.2112C7.94027 18.8112 8.27367 19.3786 8.66887 19.9021C6.75898 19.3163 5.083 18.1421 3.88025 16.5471ZM18.1497 17.5396C17.0542 18.6363 15.7063 19.4474 14.2243 19.9019C14.2468 19.8728 14.2699 19.845 14.2921 19.8153C15.0538 18.7187 15.6087 17.4921 15.9293 16.196C16.9594 16.2833 17.9871 16.4003 19.0125 16.5471C18.748 16.8974 18.4598 17.229 18.1497 17.5396Z" fill="#222222"/>
</svg>
