<svg xmlns="http://www.w3.org/2000/svg" width="80" height="80" viewBox="0 0 80 80" fill="none"><path d="M34.104 60.7372H45.8892C47.6623 60.7319 49.098 59.2953 49.1033 57.5211V29.6484H30.8906V57.5211C30.896 59.2953 32.3316 60.7319 34.1047 60.7372H34.104ZM39.9965 36.6168C40.875 36.6275 41.5821 37.3458 41.5821 38.2249C41.5821 39.104 40.875 39.8195 39.9965 39.8329C39.118 39.8195 38.4109 39.104 38.4109 38.2249C38.4109 37.3458 39.1179 36.6276 39.9965 36.6168ZM39.9965 45.193C40.875 45.2037 41.5821 45.922 41.5821 46.8011C41.5821 47.6802 40.875 48.3957 39.9965 48.4092C39.118 48.3957 38.4109 47.6802 38.4109 46.8011C38.4109 45.922 39.1179 45.2038 39.9965 45.193Z" fill="#2E51CC"></path><path d="M66.7884 24.2891H55.0031C53.2301 24.2944 51.7944 25.731 51.7891 27.5051V31.7933H70.0017V27.5051C69.9964 25.731 68.5614 24.2944 66.7884 24.2891Z" fill="#2E51CC"></path><path d="M13.2134 60.7382H24.9986C26.7717 60.7328 28.2073 59.2963 28.2127 57.5221V33.9375H10V57.5221C10.0054 59.2963 11.441 60.7328 13.2141 60.7382H13.2134ZM19.4487 38.7618C20.3272 38.7725 21.0343 39.4908 21.0343 40.3699C21.0343 41.249 20.3272 41.9645 19.4487 41.9779C18.5702 41.9645 17.8631 41.249 17.8631 40.3699C17.8631 39.4908 18.5701 38.7726 19.4487 38.7618ZM19.4487 47.338C20.3272 47.3487 21.0343 48.067 21.0343 48.9461C21.0343 49.8252 20.3272 50.5407 19.4487 50.5542C18.5702 50.5408 17.8631 49.8252 17.8631 48.9461C17.8631 48.067 18.5701 47.3488 19.4487 47.338Z" fill="#2E51CC"></path><path d="M49.104 23.2161C49.0986 21.4419 47.663 20.0054 45.8899 20H34.1047C32.3316 20.0054 30.896 21.4419 30.8906 23.2161V27.5042H49.1033L49.104 23.2161Z" fill="#2E51CC"></path><path d="M28.2134 27.5051C28.208 25.731 26.7724 24.2944 24.9993 24.2891H13.2141C11.441 24.2944 10.0053 25.731 10 27.5051V31.7933H28.2127L28.2134 27.5051Z" fill="#2E51CC"></path><path d="M51.7891 57.5221C51.7944 59.2963 53.2301 60.7328 55.0031 60.7382H66.7884C68.5614 60.7328 69.9971 59.2963 70.0024 57.5221V33.9375H51.7897L51.7891 57.5221ZM60.8207 38.7614C61.6991 38.7722 62.4063 39.4904 62.4063 40.3695C62.4063 41.2486 61.6992 41.9642 60.8207 41.9776C59.9422 41.9642 59.2351 41.2486 59.2351 40.3695C59.2351 39.4904 59.9421 38.7722 60.8207 38.7614ZM60.8207 47.3377C61.6991 47.3484 62.4063 48.0666 62.4063 48.9457C62.4063 49.8248 61.6992 50.5404 60.8207 50.5538C59.9422 50.5404 59.2351 49.8248 59.2351 48.9457C59.2351 48.0666 59.9421 47.3484 60.8207 47.3377Z" fill="#2E51CC"></path><path d="M68.9371 74.675H65.0481C64.5472 72.7963 62.8465 71.4885 60.9019 71.4885C58.9574 71.4885 57.2567 72.7963 56.7558 74.675H44.1567C43.771 73.1635 42.5925 71.9842 41.0819 71.5983V62.8828H38.9392V71.5983C37.4286 71.9842 36.25 73.1634 35.8644 74.675H23.2652C22.7778 72.7802 21.0716 71.459 19.1191 71.459C17.1665 71.459 15.4604 72.7802 14.9729 74.675H11.0839C10.5 74.6831 10.0312 75.1601 10.0312 75.7471C10.0312 76.3313 10.5 76.8084 11.0839 76.8191H14.9729C15.4738 78.6978 17.1745 80.003 19.1191 80.003C21.0636 80.003 22.7644 78.6978 23.2652 76.8191H35.8644C36.3679 78.6978 38.0686 80.003 40.0105 80.003C41.9524 80.003 43.6531 78.6952 44.1567 76.8191H56.7558C57.2593 78.6952 58.9601 80.0003 60.9019 80.0003C62.8438 80.0003 64.5445 78.6952 65.0481 76.8191H68.9371C69.521 76.8084 69.9924 76.3313 69.9924 75.7471C69.9924 75.1601 69.521 74.6831 68.9371 74.675Z" fill="#2E51CC"></path></svg>